<?xml version="1.0" encoding="utf-8"?>
<!-- Generator: Adobe Illustrator 25.2.0, SVG Export Plug-In . SVG Version: 6.00 Build 0)  -->
<svg version="1.1" id="Layer_1" xmlns="http://www.w3.org/2000/svg" xmlns:xlink="http://www.w3.org/1999/xlink" x="0px" y="0px"
	 viewBox="0 0 100.1 100.1" style="enable-background:new 0 0 100.1 100.1;" xml:space="preserve">
<style type="text/css">
	.st0{stroke:#000000;stroke-width:1.75;stroke-miterlimit:10;}
	.st1{fill:none;stroke:#000000;stroke-width:5;stroke-linejoin:round;}
	.st2{fill:none;stroke:#000000;stroke-width:5;stroke-miterlimit:10;}
	.st3{fill:none;stroke:#FFFFFF;stroke-width:4;stroke-linecap:square;stroke-miterlimit:10;}
	.st4{fill:none;stroke:#FFFFFF;stroke-width:4;stroke-linecap:round;stroke-miterlimit:10;}
	.st5{fill:#FFFFFF;stroke:#FFFFFF;stroke-width:4;stroke-linecap:square;stroke-miterlimit:10;}
</style>
<g id="Outer_Circle">
	<path class="st0" d="M50,4C75.4,4,96,24.6,96,50c0,25.3-20.6,45.9-46.1,45.9C24.6,95.9,4.1,75.3,4.1,50C4.1,24.6,24.7,4.1,50,4
		 M50,1.1C23,1.1,1.1,23,1.1,50S23,98.9,50,98.9S98.9,77,98.9,50S77.1,1.1,50,1.1z"/>
</g>
<g id="K">
	<line class="st1" x1="26" y1="82.6" x2="75.1" y2="82.6"/>
	<line class="st1" x1="28.3" y1="13.8" x2="28.3" y2="84.6"/>
	<line class="st1" x1="36.9" y1="46.1" x2="73" y2="78.7"/>
	<polyline class="st2" points="70.4,13.5 70.4,14.6 27.9,54.2 	"/>
</g>
<g id="White_LInes">
	<line class="st3" x1="75.1" y1="17.5" x2="14.6" y2="71.5"/>
	<line class="st4" x1="23" y1="78.1" x2="79.1" y2="78.1"/>
	<line class="st3" x1="18.2" y1="71" x2="15.4" y2="72"/>
	<path class="st5" d="M34.5,20"/>
	<line class="st3" x1="32.7" y1="13.5" x2="32.7" y2="54.6"/>
</g>
</svg>
