<svg xmlns="http://www.w3.org/2000/svg" viewBox="0 0 552.52 592.09"><defs><style>.cls-1{fill:#b3b3b3;}.cls-2{fill:#632c09;}.cls-3{fill:#ffd3c9;}.cls-4{fill:#ebbfb5;}.cls-5{fill:#f0c4ba;}.cls-6{fill:#c1272d;}.cls-7{fill:#793813;}.cls-8{fill:#71272d;}.cls-9{fill:#ed1c24;}.cls-10{fill:#f2f2f2;}.cls-11{fill:#4d4d4d;}.cls-12{fill:#3a3a3a;}.cls-13{fill:#3a3a37;}.cls-14{fill:#9b272d;}.cls-15{fill:#693813;}.cls-16{fill:none;}</style></defs><g id="Layer_1" data-name="Layer 1"><circle class="cls-1" cx="276.26" cy="315.81" r="276.26"/></g><g id="Face_and_Skin" data-name="Face and Skin"><path class="cls-2" d="M151.82,133.35s1.82,65.6-6.22,132.58c-3,25.25,6.31,49.76,3.38,69.4-2.32,15.6,1.49,30.2,16.63,32.48,61.37,9.25,174.11,23.26,275.23,4.68,14.15-2.6,18.37-16.13,16.76-30.89-2.21-20.23-10.63-49.79-12.5-80-3.11-49.94,5.71-101.5,0-115.06C426.86,103.39,151.82,133.35,151.82,133.35Z" transform="translate(-23.74 -3.96)"/><path class="cls-3" d="M231.59,330.54s27.17,46.42-24,62.71-42.85,119.2,79.4,119.2c130,0,134.67-69.75,105.22-104.07C357,377.54,339,381,363.9,346.11,294.83,366,231.59,330.54,231.59,330.54Z" transform="translate(-23.74 -3.96)"/><path class="cls-3" d="M428.73,183.07c6.32,41.07,10.63,64.06,2.28,87.72-6.84,19.36-39.87,87.72-124.17,87.72-76.33,0-118.48-58.1-124.18-83.17-1.82-8-7.8,3.13-25.06-6.83-29.62-17.09-26.17-79.72-18.23-91.14,18.23-26.2,36.31,5.22,36.46,0,2.27-80.88,29.62-162.91,129.3-162.91,53,0,120.41,33.38,132.71,98C442.4,136.36,426.45,168.26,428.73,183.07Z" transform="translate(-23.74 -3.96)"/><path class="cls-4" d="M231.59,330.54s8.52,16.59,6.89,31.41C250,378.32,269.69,404.3,300,402.37s49.19-3.21,52.17-30.25c1.8-16.29,9.09-19,13.52-27C305.13,367.51,231.59,330.54,231.59,330.54Z" transform="translate(-23.74 -3.96)"/><path class="cls-5" d="M179.54,239S191.86,341.09,313.83,347.3c10.08,1.16,32.17,2.73,56.9-4.75-46.82,25.47-99.37,14.83-133.34-2.62-40.49-25.21-54.09-54-67.26-90.79-6.4-20.56-3.51-54.62-3.51-54.62S172.56,204.06,179.54,239Z" transform="translate(-23.74 -3.96)"/><path class="cls-5" d="M168.28,188.5l-3.94-5.07a6.21,6.21,0,0,0-3.37-2.21c-7.1-1.82-28.24-3.17-14.28,51.23a6.32,6.32,0,0,0,.27.84c6.85,17.22,13.81,24.91,22.41,28,4.63,1.67,14.27-2.74,13.26-7.56l-13.16-62.67A6.31,6.31,0,0,0,168.28,188.5Z" transform="translate(-23.74 -3.96)"/><path class="cls-6" d="M156.47,133.7" transform="translate(-23.74 -3.96)"/><path class="cls-7" d="M228,174.61c29.39-13.47,33.33-11.92,53.85-9.08,3.95.55,8.5-4.14,5.1-5.56-17.28-7.19-33.38-6.41-54.65,7.35C229,170.44,224,176.43,228,174.61Z" transform="translate(-23.74 -3.96)"/><path class="cls-8" d="M277,268.67c18.32,1.25,59.27,3.17,86.56-2.22a7.7,7.7,0,0,1,8.56,10.47c-10.55,26.3-22.1,39.43-49.62,39.43-27.34,0-47.9-18.51-53.45-38.06A7.65,7.65,0,0,1,277,268.67Z" transform="translate(-23.74 -3.96)"/><path class="cls-9" d="M276.65,293.55c8.56-5.83,17.16-7.1,26.24-4.43a6.73,6.73,0,0,0,4.47,0c12.65-4.41,28.27,3.46,43.66,19.41-10.43,7.78-24.87,8.76-38,7A53.87,53.87,0,0,1,276.65,293.55Z" transform="translate(-23.74 -3.96)"/><path class="cls-10" d="M363.28,266.5a44.38,44.38,0,0,1,.61,5.6c.16,2.36-2,4.39-4.79,4.57-13.26.81-50.4,2.68-77.9,0a4.63,4.63,0,0,1-4.26-3.36,26.57,26.57,0,0,1-.29-5.31C302.49,269,336.32,269.49,363.28,266.5Z" transform="translate(-23.74 -3.96)"/><g id="Left_Eye" data-name="Left Eye"><circle class="cls-7" cx="248.22" cy="204.65" r="13.1"/></g><g id="Right_Eye" data-name="Right Eye"><circle class="cls-7" cx="344.55" cy="204.83" r="13.1"/></g><path class="cls-5" d="M333.11,237.16s-21.52,13-20.95,13.06,12.68,7.84,17.69,3.49S335,245.82,333.11,237.16Z" transform="translate(-23.74 -3.96)"/><path class="cls-5" d="M365.69,345.15" transform="translate(-23.74 -3.96)"/><path class="cls-5" d="M226.11,383.79s-16.55,20.13,0,44.56,50.29,52.35,83.26,51.19c8.53-.39,25.64-3.19,25.64-3.19s-18.22,10.53-29.88,11.51-84.71.6-95.31-47.49c-9.82-43.82-7.46-44.12,9.19-56.58,2.71-4.69,7.1,0,7.1,0" transform="translate(-23.74 -3.96)"/><path class="cls-5" d="M365.69,381.7s9,28.42,7,48.59c13.1,8.92,17.75-31.8,17.75-31.8Z" transform="translate(-23.74 -3.96)"/><path class="cls-7" d="M190.59,31.42" transform="translate(-23.74 -3.96)"/><path class="cls-7" d="M405.56,174.61c-29.4-13.47-33.33-11.92-53.86-9.08-3.94.55-8.5-4.14-5.1-5.56,17.29-7.19,33.38-6.41,54.66,7.35C404.52,170.44,409.54,176.43,405.56,174.61Z" transform="translate(-23.74 -3.96)"/></g><g id="_Clothes" data-name=" Clothes"><path class="cls-11" d="M221.72,454.72s23.27,30.64,72.52,29.47,73.3-28.43,73.3-28.43L399.93,577.4S354.36,596.56,295.41,596s-104.33-20.7-120.61-29.62S221.72,454.72,221.72,454.72Z" transform="translate(-23.74 -3.96)"/><path class="cls-12" d="M222.5,457.82s2.4,2.55,11.87,8.59c-4.5,8.86-10.71,69-16.14,117.45-3.36-.8-14.21-4.3-14.21-4.3S199.62,498.54,222.5,457.82Z" transform="translate(-23.74 -3.96)"/><path class="cls-13" d="M367.54,455.76S355.85,465.5,355,466s9.67,100.73,12.25,121.5c1.8.21,12.28-3.2,15.91-4.34s7.22-11,7.22-11Z" transform="translate(-23.74 -3.96)"/><path class="cls-14" d="M401.3,396.16s39.95,13.5,74.46,17.71c5,.61,38.64,47,37.36,81.69-18.83,32.3-79.65,72.4-129.92,87.63-12.78-38.75,3.75-54.78-20.8-127.61C384.11,420.67,401.3,396.16,401.3,396.16Z" transform="translate(-23.74 -3.96)"/><path class="cls-14" d="M187.21,396.16s-40,13.5-74.47,17.71c-5,.61-34.74,37.35-33.46,72.06,18.83,32.3,76.9,76.22,126.55,93.63,12.79-38.74-4.28-51.15,20.28-124C204.4,420.67,187.21,396.16,187.21,396.16Z" transform="translate(-23.74 -3.96)"/><path class="cls-6" d="M229.91,379.85a10.21,10.21,0,0,0,1-1c4.74-6.45,9.41-15.12,4.05-15.25-10.52-.24-37.13,9.51-47.38,20.94-15.48,17.27,4.61,48.32,34.1,70.22a5.12,5.12,0,0,0,8.05-5.32c-5.3-21.36-18.78-30.42-20-43.16C208.69,393.85,215.52,393.83,229.91,379.85Z" transform="translate(-23.74 -3.96)"/><path class="cls-6" d="M360.22,384.31a9.2,9.2,0,0,1-1-1c-4.74-6.46-10.69-13.1-4.05-15.25,10-3.25,37.13,9.51,47.38,20.94,15.48,17.26-4.61,48.31-34.1,70.22a5.12,5.12,0,0,1-8.05-5.33c5.3-21.36,18.78-30.42,19.94-43.15C381.43,398.32,374.61,398.3,360.22,384.31Z" transform="translate(-23.74 -3.96)"/><path class="cls-13" d="M303.57,181.84c-37.4-19.52-102.37-1.18-102.37-1.18-6.74,24,0,52.1,11.69,58.88,9.52,6.37,62.1,11.33,79-1.19S303.22,187.68,303.57,181.84Zm-15.68,52.3c-15.39,10.58-63.17,6.39-71.83,1-10.62-5.72-16.75-29.47-10.62-49.71,0,0,59-15.49,93,1C298.15,191.36,303.28,223.57,287.89,234.14Z" transform="translate(-23.74 -3.96)"/><path class="cls-13" d="M329.18,182.47c37.41-19.53,102.37-1.19,102.37-1.19,6.75,24,0,52.1-11.68,58.88-9.53,6.37-62.1,11.33-79-1.19S329.54,188.31,329.18,182.47Zm15.69,52.3c15.39,10.57,63.17,6.38,71.83,1,10.62-5.72,16.74-29.47,10.62-49.71,0,0-59-15.49-93,1C334.61,192,329.48,224.19,344.87,234.77Z" transform="translate(-23.74 -3.96)"/><path class="cls-13" d="M304.2,200.25s9.54-5.17,25,0V205s-12.47-4.29-25.46,0C302.52,202.86,304.2,200.25,304.2,200.25Z" transform="translate(-23.74 -3.96)"/><polygon class="cls-12" points="177.46 176.71 150.2 169.86 150.2 174.59 177.46 182.53 177.46 176.71"/></g><g id="Layer_4" data-name="Layer 4"><path class="cls-7" d="M243.88,26.6a7.16,7.16,0,0,0-6.8-7.14c-18.15-1-67.52,2.53-84.4,66.15-18.74,70.6-27.7,150.1-24.07,244.8a45.51,45.51,0,0,0,2.46,13.33c9.31,26.49,32.8,36,53.45,40.62,2.19.5,5-.57,5.21-2.81.68-6.48,2.13-48.07,2.13-48.07s5.53,45.81,6.31,52.61c.18,1.58,2.09,2.37,3.68,2.41,2,.05,4.76.09,5.08.13a8.12,8.12,0,0,0,8.85-10.24c-8.55-30.77-31.8-104.13-25.19-161.46,7.44-64.62,10.26-85.42,45.75-101.83a16.57,16.57,0,0,0,9.62-14c.77-12.76-2.08-28.52-2.08-28.52Z" transform="translate(-23.74 -3.96)"/><path class="cls-7" d="M243.88,25.52A8.14,8.14,0,0,1,248.93,18C269,9.7,306.58-11.52,385.74,23.21a86.37,86.37,0,0,1,31.87,23.88c70.7,85.38,50.64,230.33,46.83,301.34-.48,9-3.44,24.63-9.86,29.79a1.92,1.92,0,0,1-3.11-1.38C450.87,365.75,447,329,447,329s-3.05,37.63-3.88,50.64a3.65,3.65,0,0,1-2.89,3.35c-12.92,2.69-29.5,2.07-35.68-5.77a18.31,18.31,0,0,1-3.16-16.41c18.18-63.5,23.2-156.86,2.05-212.36A66.8,66.8,0,0,0,354.84,107c-34.48-7.3-73.69-2.29-97.59,2.08a11.35,11.35,0,0,1-13.37-11.18Z" transform="translate(-23.74 -3.96)"/><path class="cls-7" d="M244.1,31.42s-3.28,13.5-3.08,15.91c.28,3.6,5.66,9.47,6.17,14.1s-6,13.48-6,17.05c0,5.91,2.9,16.43,4.06,16.43" transform="translate(-23.74 -3.96)"/><path class="cls-15" d="M244.1,31.42l-1.44,8.27L242,43.82c-.1.69-.19,1.37-.25,2,0,.34,0,.68-.06,1a3.29,3.29,0,0,0,.09.88,14.11,14.11,0,0,0,1.65,3.6l2.14,3.6a27.09,27.09,0,0,1,1.93,3.89,10.41,10.41,0,0,1,.6,2.21,8,8,0,0,1-.05,2.39,31.58,31.58,0,0,1-3.13,8.06c-.62,1.25-1.25,2.5-1.82,3.74a8.8,8.8,0,0,0-1.06,3.62,51.07,51.07,0,0,0,.86,8.19c.25,1.36.49,2.73.82,4.08.16.68.34,1.35.55,2,.12.32.22.66.36,1s.26.69.59.81c-.37-.07-.56-.45-.76-.72a7.1,7.1,0,0,1-.52-.93c-.31-.64-.58-1.29-.84-2a41.11,41.11,0,0,1-1.33-4c-.38-1.36-.71-2.74-1-4.14a30,30,0,0,1-.52-4.27,5.62,5.62,0,0,1,0-1.21,9.51,9.51,0,0,1,.27-1.14,19.56,19.56,0,0,1,.76-2.07c.56-1.32,1.19-2.57,1.8-3.83s1.2-2.51,1.72-3.76a17.28,17.28,0,0,0,1.23-3.77,5.43,5.43,0,0,0,.07-1.79,9.66,9.66,0,0,0-.47-1.83A25.26,25.26,0,0,0,244,55.8c-.65-1.21-1.36-2.41-2-3.68A15.33,15.33,0,0,1,240.4,48a4.9,4.9,0,0,1-.07-1.21c0-.38.08-.74.14-1.1.11-.71.25-1.4.39-2.09.29-1.38.62-2.75,1-4.11C242.55,36.8,243.26,34.09,244.1,31.42Z" transform="translate(-23.74 -3.96)"/><path class="cls-16" d="M173,237.16" transform="translate(-23.74 -3.96)"/><path class="cls-16" d="M194.79,379.29" transform="translate(-23.74 -3.96)"/><path class="cls-16" d="M452.47,266.3" transform="translate(-23.74 -3.96)"/><path class="cls-16" d="M438.67,107.62" transform="translate(-23.74 -3.96)"/></g></svg>